# xmcd
#
# Track frame offsets:
#	150
#	34714
#	68348
#	105177
#	136404
#	168063
#	198905
#
# Disc length: 2831 seconds
#
# Revision: 0
# Processed by: cddbd v1.5.2PL0 Copyright (c) Steve Scherf et al.
# Submitted via: EasyCDDAExtractor 2010.6.0.0
#
DISCID=490b0d07
DTITLE=Kathy Brown vs. Miami Calling - Dare Me
DYEAR=2006
DGENRE=House
TTITLE0=Dare Me (Original Club Mix)
TTITLE1=Dare Me (DJ Chus and David Penn Vocal Mix)
TTITLE2=Dare Me (DJ Chus and David Penn Dubsonic mix)
TTITLE3=Dare Me (Ian Hadassi Remix)
TTITLE4=Dare Me (Hoxton Whores Vocal Mix)
TTITLE5=Dare Me (Hoxton Whores Dub Mix)
TTITLE6=Dare Me (Radio Edit)
EXTD=
EXTT0=
EXTT1=
EXTT2=
EXTT3=
EXTT4=
EXTT5=
EXTT6=
PLAYORDER=
